<svg width="51" height="25" viewBox="0 0 51 25" fill="none" xmlns="http://www.w3.org/2000/svg">
<path d="M0.787685 22.7814C1.03669 23.1983 1.39495 23.5773 1.84319 23.8981C2.30576 24.2305 2.85576 24.4943 3.46155 24.6744C4.06734 24.8544 4.71698 24.9472 5.37312 24.9473L35.2457 24.9473C35.985 24.9473 36.6845 24.7125 37.16 24.3089L49.6069 13.6397C50.3761 12.98 50.3761 12.0216 49.6069 11.3619L37.16 0.692707C36.6845 0.287279 35.985 0.052557 35.2457 0.052557L5.37312 0.052557C4.72132 0.0507126 4.07549 0.14123 3.47299 0.318871C2.87049 0.496513 2.32331 0.757753 1.8631 1.08747C1.39776 1.41789 1.02845 1.81076 0.776386 2.24348C0.52433 2.67621 0.394501 3.14026 0.394363 3.60894L0.394363 21.3909C0.394363 21.8627 0.525471 22.3262 0.787685 22.7814Z" fill="#1B3B5F"/>
</svg>
