<svg width="221" height="116" viewBox="0 0 221 116" fill="none" xmlns="http://www.w3.org/2000/svg">
<path d="M214.153 100.813L213.677 100.965L214.153 100.813ZM219 115.943L220.224 110.301L214.726 112.062L219 115.943ZM1.26922 24.3648C2.24095 23.7438 3.21666 23.1364 4.19617 22.5422L3.67756 21.6872C2.69139 22.2854 1.70907 22.897 0.730786 23.5221L1.26922 24.3648ZM10.1385 19.1258C12.1568 18.0277 14.1892 16.9841 16.234 15.9945L15.7983 15.0944C13.7393 16.0909 11.6928 17.1417 9.66057 18.2473L10.1385 19.1258ZM22.4869 13.1514C24.602 12.2505 26.7285 11.4053 28.8645 10.6153L28.5176 9.67737C26.3665 10.473 24.225 11.3242 22.095 12.2314L22.4869 13.1514ZM35.3543 8.3926C37.5429 7.70205 39.7396 7.06776 41.9427 6.48907L41.6886 5.52188C39.4699 6.10469 37.2575 6.74349 35.0534 7.43895L35.3543 8.3926ZM48.6152 4.9094C50.859 4.43572 53.1074 4.01848 55.3586 3.657L55.2001 2.66964C52.9329 3.0337 50.6684 3.45391 48.4086 3.93096L48.6152 4.9094ZM62.1596 2.73458C64.4381 2.48197 66.7175 2.2856 68.9958 2.14476L68.9341 1.14667C66.6396 1.2885 64.3441 1.48626 62.0494 1.74067L62.1596 2.73458ZM75.8514 1.88781C78.1417 1.85755 80.4289 1.8829 82.711 1.96314L82.7462 0.963752C80.448 0.882946 78.1447 0.857421 75.8382 0.887898L75.8514 1.88781ZM89.5588 2.36939C91.8401 2.55995 94.1143 2.80524 96.3793 3.10451L96.5103 2.11313C94.2295 1.81176 91.9394 1.56476 89.6421 1.37287L89.5588 2.36939ZM103.157 4.16585C105.41 4.57393 107.65 5.03564 109.878 5.55023L110.103 4.57588C107.86 4.05772 105.604 3.59281 103.336 3.18188L103.157 4.16585ZM116.524 7.25348C118.726 7.87404 120.913 8.54688 123.082 9.27126L123.399 8.32276C121.215 7.59334 119.013 6.91584 116.796 6.29098L116.524 7.25348ZM129.536 11.5988C131.668 12.4255 133.781 13.3031 135.872 14.2308L136.277 13.3167C134.172 12.3826 132.044 11.4989 129.897 10.6664L129.536 11.5988ZM142.076 17.1616C144.119 18.1872 146.139 19.262 148.133 20.3853L148.624 19.514C146.616 18.3829 144.582 17.3006 142.524 16.2679L142.076 17.1616ZM154.028 23.8944C155.963 25.1097 157.87 26.3723 159.748 27.6817L160.32 26.8614C158.429 25.5429 156.508 24.2713 154.56 23.0476L154.028 23.8944ZM165.279 31.7396C167.087 33.1344 168.864 34.5746 170.608 36.0597L171.256 35.2984C169.5 33.8028 167.711 32.3524 165.89 30.9478L165.279 31.7396ZM175.721 40.6332C177.385 42.1957 179.015 43.8017 180.608 45.4504L181.327 44.7556C179.723 43.0952 178.082 41.4778 176.406 39.9042L175.721 40.6332ZM185.255 50.5013C186.757 52.2164 188.221 53.9727 189.646 55.7694L190.43 55.1481C188.995 53.3385 187.52 51.5697 186.007 49.8424L185.255 50.5013ZM193.775 61.2443C195.102 63.0958 196.388 64.9862 197.632 66.9147L198.472 66.3726C197.219 64.4304 195.924 62.5266 194.588 60.6618L193.775 61.2443ZM201.209 72.7679C202.349 74.7394 203.447 76.7473 204.5 78.7908L205.389 78.3327C204.329 76.2748 203.223 74.2528 202.075 72.2673L201.209 72.7679ZM207.499 84.9704C208.442 87.0374 209.34 89.1379 210.193 91.2714L211.122 90.9002C210.263 88.752 209.358 86.6369 208.409 84.5555L207.499 84.9704ZM212.587 97.6942C212.962 98.7767 213.326 99.8671 213.677 100.965L214.63 100.66C214.275 99.5547 213.91 98.4569 213.532 97.367L212.587 97.6942ZM213.677 100.965L214.889 104.748L215.841 104.443L214.63 100.66L213.677 100.965ZM214.153 100.813L213.677 100.965L214.153 100.813ZM219 115.943L220.224 110.301L214.726 112.062L219 115.943ZM1.26922 24.3648C2.24095 23.7438 3.21666 23.1364 4.19617 22.5422L3.67756 21.6872C2.69139 22.2854 1.70907 22.897 0.730786 23.5221L1.26922 24.3648ZM10.1385 19.1258C12.1568 18.0277 14.1892 16.9841 16.234 15.9945L15.7983 15.0944C13.7393 16.0909 11.6928 17.1417 9.66057 18.2473L10.1385 19.1258ZM22.4869 13.1514C24.602 12.2505 26.7285 11.4053 28.8645 10.6153L28.5176 9.67737C26.3665 10.473 24.225 11.3242 22.095 12.2314L22.4869 13.1514ZM35.3543 8.3926C37.5429 7.70205 39.7396 7.06776 41.9427 6.48907L41.6886 5.52188C39.4699 6.10469 37.2575 6.74349 35.0534 7.43895L35.3543 8.3926ZM48.6152 4.9094C50.859 4.43572 53.1074 4.01848 55.3586 3.657L55.2001 2.66964C52.9329 3.0337 50.6684 3.45391 48.4086 3.93096L48.6152 4.9094ZM62.1596 2.73458C64.4381 2.48197 66.7175 2.2856 68.9958 2.14476L68.9341 1.14667C66.6396 1.2885 64.3441 1.48626 62.0494 1.74067L62.1596 2.73458ZM75.8514 1.88781C78.1417 1.85755 80.4289 1.8829 82.711 1.96314L82.7462 0.963752C80.448 0.882946 78.1447 0.857421 75.8382 0.887898L75.8514 1.88781ZM89.5588 2.36939C91.8401 2.55995 94.1143 2.80524 96.3793 3.10451L96.5103 2.11313C94.2295 1.81176 91.9394 1.56476 89.6421 1.37287L89.5588 2.36939ZM103.157 4.16585C105.41 4.57393 107.65 5.03564 109.878 5.55023L110.103 4.57588C107.86 4.05772 105.604 3.59281 103.336 3.18188L103.157 4.16585ZM116.524 7.25348C118.726 7.87404 120.913 8.54688 123.082 9.27126L123.399 8.32276C121.215 7.59334 119.013 6.91584 116.796 6.29098L116.524 7.25348ZM129.536 11.5988C131.668 12.4255 133.781 13.3031 135.872 14.2308L136.277 13.3167C134.172 12.3826 132.044 11.4989 129.897 10.6664L129.536 11.5988ZM142.076 17.1616C144.119 18.1872 146.139 19.262 148.133 20.3853L148.624 19.514C146.616 18.3829 144.582 17.3006 142.524 16.2679L142.076 17.1616ZM154.028 23.8944C155.963 25.1097 157.87 26.3723 159.748 27.6817L160.32 26.8614C158.429 25.5429 156.508 24.2713 154.56 23.0476L154.028 23.8944ZM165.279 31.7396C167.087 33.1344 168.864 34.5746 170.608 36.0597L171.256 35.2984C169.5 33.8028 167.711 32.3524 165.89 30.9478L165.279 31.7396ZM175.721 40.6332C177.385 42.1957 179.015 43.8017 180.608 45.4504L181.327 44.7556C179.723 43.0952 178.082 41.4778 176.406 39.9042L175.721 40.6332ZM185.255 50.5013C186.757 52.2164 188.221 53.9727 189.646 55.7694L190.43 55.1481C188.995 53.3385 187.52 51.5697 186.007 49.8424L185.255 50.5013ZM193.775 61.2443C195.102 63.0958 196.388 64.9862 197.632 66.9147L198.472 66.3726C197.219 64.4304 195.924 62.5266 194.588 60.6618L193.775 61.2443ZM201.209 72.7679C202.349 74.7394 203.447 76.7473 204.5 78.7908L205.389 78.3327C204.329 76.2748 203.223 74.2528 202.075 72.2673L201.209 72.7679ZM207.499 84.9704C208.442 87.0374 209.34 89.1379 210.193 91.2714L211.122 90.9002C210.263 88.752 209.358 86.6369 208.409 84.5555L207.499 84.9704ZM212.587 97.6942C212.962 98.7767 213.326 99.8671 213.677 100.965L214.63 100.66C214.275 99.5547 213.91 98.4569 213.532 97.367L212.587 97.6942ZM213.677 100.965L214.889 104.748L215.841 104.443L214.63 100.66L213.677 100.965Z" fill="#1C1C1C"/>
</svg>
